#Comment line ignore any data following # character 
#Hierarchical Translation and Rotation (.htr) file 
[Header]	
#Header keywords are followed by a single value 
FileType HTR		#Single word string
DataType HTRS		#Translation followed by rotation and scale data
FileVersion 1		#integer
NumSegments 84		#integer
NumFrames 2		#integer
DataFrameRate 30		#integer, data frame rate in this file
EulerRotationOrder ZYX
CalibrationUnits mm
RotationUnits Degrees
GlobalAxisofGravity Y
BoneLengthAxis Y
ScaleFactor 1.00
[SegmentNames&Hierarchy]
#CHILD	PARENT
MASTER GLOBAL
root MASTER
chest root
L_mid_tent01 root
R_mid_tent01 root
spine01 root
Bip01_Neck chest
L_humerus chest
R_humerus chest
weapon_bone chest
Bip01_Head Bip01_Neck
eye_left_bone Bip01_Head
eye_right_bone Bip01_Head
L_forearm L_humerus
L_front_hand L_forearm
L_weapon_bone L_forearm
L_front_hand01_01 L_front_hand
L_front_hand02_01 L_front_hand
L_front_hand03_01 L_front_hand
L_front_hand01_02 L_front_hand01_01
L_front_hand02_02 L_front_hand02_01
L_front_hand03_02 L_front_hand03_01
R_forearm R_humerus
R_front_hand R_forearm
R_weapon_bone R_forearm
R_front_hand01_01 R_front_hand
R_front_hand02_01 R_front_hand
R_front_hand03_01 R_front_hand
R_front_hand01_02 R_front_hand01_01
R_front_hand02_02 R_front_hand02_01
R_front_hand03_02 R_front_hand03_01
null_rope01_connect L_mid_tent01
Rope1_Seg01 null_rope01_connect
Rope1_Seg02 Rope1_Seg01
Rope1_Seg03 Rope1_Seg02
Rope1_Seg04 Rope1_Seg03
Rope1_Seg05 Rope1_Seg04
Rope1_Seg06 Rope1_Seg05
Rope1_Seg07 Rope1_Seg06
Rope1_Seg09 Rope1_Seg07
L_mid_hand01 Rope1_Seg09
L_mid_hand02 Rope1_Seg09
L_mid_hand03 Rope1_Seg09
null_rope02_connect R_mid_tent01
Rope2_Seg01 null_rope02_connect
Rope2_Seg02 Rope2_Seg01
Rope2_Seg03 Rope2_Seg02
Rope2_Seg04 Rope2_Seg03
Rope2_Seg05 Rope2_Seg04
Rope2_Seg06 Rope2_Seg05
Rope2_Seg07 Rope2_Seg06
Rope2_Seg09 Rope2_Seg07
R_mid_hand01 Rope2_Seg09
R_mid_hand02 Rope2_Seg09
R_mid_hand03 Rope2_Seg09
spine02 spine01
spine03 spine02
pelvis spine03
null_rope03_connect pelvis
null_rope04_connect pelvis
Rope3_Seg01 null_rope03_connect
Rope3_Seg02 Rope3_Seg01
Rope3_Seg03 Rope3_Seg02
Rope3_Seg04 Rope3_Seg03
Rope3_Seg05 Rope3_Seg04
Rope3_Seg06 Rope3_Seg05
Rope3_Seg07 Rope3_Seg06
Rope3_Seg08 Rope3_Seg07
Rope3_Seg09 Rope3_Seg08
R_rear_hand01 Rope3_Seg09
R_rear_hand02 Rope3_Seg09
R_rear_hand03 Rope3_Seg09
Rope4_Seg01 null_rope04_connect
Rope4_Seg02 Rope4_Seg01
Rope4_Seg03 Rope4_Seg02
Rope4_Seg04 Rope4_Seg03
Rope4_Seg05 Rope4_Seg04
Rope4_Seg06 Rope4_Seg05
Rope4_Seg07 Rope4_Seg06
Rope4_Seg08 Rope4_Seg07
Rope4_Seg09 Rope4_Seg08
L_rear_hand01 Rope4_Seg09
L_rear_hand02 Rope4_Seg09
L_rear_hand03 Rope4_Seg09
[BasePosition]
#SegmentName Tx, Ty, Tz, Rx, Ry, Rz, BoneLength
MASTER 0.000000 0.000000 0.000000 -90.000000 0.000000 0.000000 10.000000 
root 0.000000 0.000000 0.000000 0.000000 0.000000 0.000000 10.000000 
chest 0.000000 0.000000 0.000000 0.000000 0.000000 0.000000 10.000000 
L_mid_tent01 0.000000 0.000000 0.000000 0.000000 0.000000 0.000000 10.000000 
R_mid_tent01 0.000000 0.000000 0.000000 0.000000 0.000000 0.000000 10.000000 
spine01 0.000000 0.000000 0.000000 0.000000 0.000000 0.000000 10.000000 
Bip01_Neck 0.000000 0.000000 0.000000 0.000000 0.000000 0.000000 10.000000 
L_humerus 0.000000 0.000000 0.000000 0.000000 0.000000 0.000000 10.000000 
R_humerus 0.000000 0.000000 0.000000 0.000000 0.000000 0.000000 10.000000 
weapon_bone 0.000000 0.000000 0.000000 0.000000 0.000000 0.000000 10.000000 
Bip01_Head 0.000000 0.000000 0.000000 0.000000 0.000000 0.000000 10.000000 
eye_left_bone 0.000000 0.000000 0.000000 0.000000 0.000000 0.000000 10.000000 
eye_right_bone 0.000000 0.000000 0.000000 0.000000 0.000000 0.000000 10.000000 
L_forearm 0.000000 0.000000 0.000000 0.000000 0.000000 0.000000 10.000000 
L_front_hand 0.000000 0.000000 0.000000 0.000000 0.000000 0.000000 10.000000 
L_weapon_bone 0.000000 0.000000 0.000000 0.000000 0.000000 0.000000 10.000000 
L_front_hand01_01 0.000000 0.000000 0.000000 0.000000 0.000000 0.000000 10.000000 
L_front_hand02_01 0.000000 0.000000 0.000000 0.000000 0.000000 0.000000 10.000000 
L_front_hand03_01 0.000000 0.000000 0.000000 0.000000 0.000000 0.000000 10.000000 
L_front_hand01_02 0.000000 0.000000 0.000000 0.000000 0.000000 0.000000 10.000000 
L_front_hand02_02 0.000000 0.000000 0.000000 0.000000 0.000000 0.000000 10.000000 
L_front_hand03_02 0.000000 0.000000 0.000000 0.000000 0.000000 0.000000 10.000000 
R_forearm 0.000000 0.000000 0.000000 0.000000 0.000000 0.000000 10.000000 
R_front_hand 0.000000 0.000000 0.000000 0.000000 0.000000 0.000000 10.000000 
R_weapon_bone 0.000000 0.000000 0.000000 0.000000 0.000000 0.000000 10.000000 
R_front_hand01_01 0.000000 0.000000 0.000000 0.000000 0.000000 0.000000 10.000000 
R_front_hand02_01 0.000000 0.000000 0.000000 0.000000 0.000000 0.000000 10.000000 
R_front_hand03_01 0.000000 0.000000 0.000000 0.000000 0.000000 0.000000 10.000000 
R_front_hand01_02 0.000000 0.000000 0.000000 0.000000 0.000000 0.000000 10.000000 
R_front_hand02_02 0.000000 0.000000 0.000000 0.000000 0.000000 0.000000 10.000000 
R_front_hand03_02 0.000000 0.000000 0.000000 0.000000 0.000000 0.000000 10.000000 
null_rope01_connect 0.000000 0.000000 0.000000 0.000000 0.000000 0.000000 10.000000 
Rope1_Seg01 0.000000 0.000000 0.000000 0.000000 0.000000 0.000000 10.000000 
Rope1_Seg02 0.000000 0.000000 0.000000 0.000000 0.000000 0.000000 10.000000 
Rope1_Seg03 0.000000 0.000000 0.000000 0.000000 0.000000 0.000000 10.000000 
Rope1_Seg04 0.000000 0.000000 0.000000 0.000000 0.000000 0.000000 10.000000 
Rope1_Seg05 0.000000 0.000000 0.000000 0.000000 0.000000 0.000000 10.000000 
Rope1_Seg06 0.000000 0.000000 0.000000 0.000000 0.000000 0.000000 10.000000 
Rope1_Seg07 0.000000 0.000000 0.000000 0.000000 0.000000 0.000000 10.000000 
Rope1_Seg09 0.000000 0.000000 0.000000 0.000000 0.000000 0.000000 10.000000 
L_mid_hand01 0.000000 0.000000 0.000000 0.000000 0.000000 0.000000 10.000000 
L_mid_hand02 0.000000 0.000000 0.000000 0.000000 0.000000 0.000000 10.000000 
L_mid_hand03 0.000000 0.000000 0.000000 0.000000 0.000000 0.000000 10.000000 
null_rope02_connect 0.000000 0.000000 0.000000 0.000000 0.000000 0.000000 10.000000 
Rope2_Seg01 0.000000 0.000000 0.000000 0.000000 0.000000 0.000000 10.000000 
Rope2_Seg02 0.000000 0.000000 0.000000 0.000000 0.000000 0.000000 10.000000 
Rope2_Seg03 0.000000 0.000000 0.000000 0.000000 0.000000 0.000000 10.000000 
Rope2_Seg04 0.000000 0.000000 0.000000 0.000000 0.000000 0.000000 10.000000 
Rope2_Seg05 0.000000 0.000000 0.000000 0.000000 0.000000 0.000000 10.000000 
Rope2_Seg06 0.000000 0.000000 0.000000 0.000000 0.000000 0.000000 10.000000 
Rope2_Seg07 0.000000 0.000000 0.000000 0.000000 0.000000 0.000000 10.000000 
Rope2_Seg09 0.000000 0.000000 0.000000 0.000000 0.000000 0.000000 10.000000 
R_mid_hand01 0.000000 0.000000 0.000000 0.000000 0.000000 0.000000 10.000000 
R_mid_hand02 0.000000 0.000000 0.000000 0.000000 0.000000 0.000000 10.000000 
R_mid_hand03 0.000000 0.000000 0.000000 0.000000 0.000000 0.000000 10.000000 
spine02 0.000000 0.000000 0.000000 0.000000 0.000000 0.000000 10.000000 
spine03 0.000000 0.000000 0.000000 0.000000 0.000000 0.000000 10.000000 
pelvis 0.000000 0.000000 0.000000 0.000000 0.000000 0.000000 10.000000 
null_rope03_connect 0.000000 0.000000 0.000000 0.000000 0.000000 0.000000 10.000000 
null_rope04_connect 0.000000 0.000000 0.000000 0.000000 0.000000 0.000000 10.000000 
Rope3_Seg01 0.000000 0.000000 0.000000 0.000000 0.000000 0.000000 10.000000 
Rope3_Seg02 0.000000 0.000000 0.000000 0.000000 0.000000 0.000000 10.000000 
Rope3_Seg03 0.000000 0.000000 0.000000 0.000000 0.000000 0.000000 10.000000 
Rope3_Seg04 0.000000 0.000000 0.000000 0.000000 0.000000 0.000000 10.000000 
Rope3_Seg05 0.000000 0.000000 0.000000 0.000000 0.000000 0.000000 10.000000 
Rope3_Seg06 0.000000 0.000000 0.000000 0.000000 0.000000 0.000000 10.000000 
Rope3_Seg07 0.000000 0.000000 0.000000 0.000000 0.000000 0.000000 10.000000 
Rope3_Seg08 0.000000 0.000000 0.000000 0.000000 0.000000 0.000000 10.000000 
Rope3_Seg09 0.000000 0.000000 0.000000 0.000000 0.000000 0.000000 10.000000 
R_rear_hand01 0.000000 0.000000 0.000000 0.000000 0.000000 0.000000 10.000000 
R_rear_hand02 0.000000 0.000000 0.000000 0.000000 0.000000 0.000000 10.000000 
R_rear_hand03 0.000000 0.000000 0.000000 0.000000 0.000000 0.000000 10.000000 
Rope4_Seg01 0.000000 0.000000 0.000000 0.000000 0.000000 0.000000 10.000000 
Rope4_Seg02 0.000000 0.000000 0.000000 0.000000 0.000000 0.000000 10.000000 
Rope4_Seg03 0.000000 0.000000 0.000000 0.000000 0.000000 0.000000 10.000000 
Rope4_Seg04 0.000000 0.000000 0.000000 0.000000 0.000000 0.000000 10.000000 
Rope4_Seg05 0.000000 0.000000 0.000000 0.000000 0.000000 0.000000 10.000000 
Rope4_Seg06 0.000000 0.000000 0.000000 0.000000 0.000000 0.000000 10.000000 
Rope4_Seg07 0.000000 0.000000 0.000000 0.000000 0.000000 0.000000 10.000000 
Rope4_Seg08 0.000000 0.000000 0.000000 0.000000 0.000000 0.000000 10.000000 
Rope4_Seg09 0.000000 0.000000 0.000000 0.000000 0.000000 0.000000 10.000000 
L_rear_hand01 0.000000 0.000000 0.000000 0.000000 0.000000 0.000000 10.000000 
L_rear_hand02 0.000000 0.000000 0.000000 0.000000 0.000000 0.000000 10.000000 
L_rear_hand03 0.000000 0.000000 0.000000 0.000000 0.000000 0.000000 10.000000 
#Beginning of Data. Separated by tabs
#Fr	Tx	Ty	Tz	Rx	Ry	Rz	SF
[MASTER]
22 1172.994019 -5825.081055 1819.690796 0.000000 -0.002347 -89.999992 6214.399414
23 1373.705811 -6112.275391 1659.874146 0.000000 -0.002347 -90.000000 6480.907227
[root]
22 -248.838013 -124.132797 598.074768 -59.742424 -17.458475 -136.263428 659.562561
23 -259.924255 -50.708965 582.056763 -66.533112 -16.159910 -137.544876 639.470154
[chest]
22 -84.512650 -34.090519 0.000000 11.944068 -6.181515 164.625015 91.129311
23 -84.512650 -34.090519 0.000000 6.031405 -6.106636 166.784027 91.129311
[L_mid_tent01]
22 27.299852 22.177547 -249.918259 -18.778393 7.200156 15.010705 252.381180
23 27.299868 22.177549 -249.918259 -18.378229 8.053776 3.298025 252.381180
[R_mid_tent01]
22 23.228794 24.509907 226.238495 153.715515 -0.765901 8.293178 228.744751
23 23.228794 24.509907 226.238495 154.790161 2.801840 18.329353 228.744751
[spine01]
22 -0.361383 -0.195265 0.000000 0.001687 0.001632 1.890996 0.410763
23 -0.361383 -0.195265 0.000000 0.001687 0.001632 1.890996 0.410763
[Bip01_Neck]
22 165.484543 71.581718 0.000119 176.643677 -1.657967 43.431911 180.302734
23 165.484543 71.581718 0.000119 176.643677 -1.657967 43.431911 180.302734
[L_humerus]
22 -13.983130 -135.272980 -120.471481 172.083572 0.708369 -94.955666 181.680161
23 -13.983130 -135.272980 -120.471481 172.282440 0.088530 -94.960693 181.680161
[R_humerus]
22 -13.983309 -135.273102 125.287651 -177.014343 2.678890 -85.399712 184.909012
23 -13.983309 -135.273102 125.287651 -177.013306 3.203679 -85.378258 184.909012
[weapon_bone]
22 235.964890 -300.705902 0.000000 0.000000 -89.951546 -128.212341 382.234833
23 235.964890 -300.705902 0.000000 0.000000 -89.951546 -128.212341 382.234833
[Bip01_Head]
22 213.356339 185.960190 8.617081 26.387497 3.455049 -41.009823 283.154327
23 213.361420 185.946167 8.798344 22.092659 4.029248 -41.612839 283.154510
[eye_left_bone]
22 -24.626970 125.451866 -64.772606 0.000000 -90.000000 -99.840431 143.318359
23 -24.626970 125.451866 -64.772606 0.000000 -90.000000 -99.840431 143.318359
[eye_right_bone]
22 -24.626970 125.451866 64.327362 0.000000 -89.965736 80.156380 143.117676
23 -24.626970 125.451866 64.327362 0.000000 -89.965736 80.156380 143.117676
[L_forearm]
22 322.776093 0.000000 -0.000119 0.000119 -0.002344 -95.807457 322.776093
23 322.776093 0.000000 -0.000119 0.000119 -0.002344 -95.807457 322.776093
[L_front_hand]
22 241.149185 -0.042021 -3.300071 -178.667953 -1.835447 -27.422342 241.171753
23 241.149185 -0.042021 -3.300071 -178.667953 -1.835447 -27.422350 241.171753
[L_weapon_bone]
22 156.183838 0.000000 0.000000 0.000014 0.000007 0.000001 156.183838
23 156.183838 0.000000 0.000000 0.000014 0.000007 0.000001 156.183838
[L_front_hand01_01]
22 86.095154 20.947098 -0.655860 -0.365735 -0.477812 75.179466 88.609184
23 86.095154 20.947098 -0.655860 -0.366594 -0.477154 75.385574 88.609184
[L_front_hand02_01]
22 86.935165 -11.437475 24.513514 154.083481 -59.794327 -61.001266 91.046425
23 86.935165 -11.437475 24.513514 154.399796 -59.883835 -61.369587 91.046425
[L_front_hand03_01]
22 86.637497 -14.123976 -20.424902 -153.626984 58.028236 -62.364826 90.126129
23 86.637497 -14.123976 -20.424902 -153.913849 58.118122 -62.702866 90.126129
[L_front_hand01_02]
22 71.020905 -0.000179 0.000030 0.000329 -0.002324 -106.115440 71.020905
23 71.020905 -0.000179 0.000030 0.000331 -0.002324 -106.206635 71.020905
[L_front_hand02_02]
22 71.020927 -0.000119 0.000060 0.000329 -0.002324 -106.115440 71.020927
23 71.020927 -0.000119 0.000060 0.000331 -0.002324 -106.206635 71.020927
[L_front_hand03_02]
22 71.020905 -0.000060 0.000060 0.000329 -0.002324 -106.115440 71.020905
23 71.020905 -0.000060 0.000060 0.000331 -0.002324 -106.206635 71.020905
[R_forearm]
22 322.776428 -0.000060 0.000030 0.209504 0.012586 -94.339050 322.776428
23 322.776428 -0.000060 0.000030 0.209504 0.012586 -94.339050 322.776428
[R_front_hand]
22 238.847015 -0.006795 2.210259 -2.635298 -10.645461 -26.312506 238.857239
23 238.847015 -0.006795 2.210259 -2.635298 -10.645461 -26.312506 238.857239
[R_weapon_bone]
22 155.664093 0.002503 -0.000030 0.003487 0.001180 -90.988930 155.664078
23 155.664093 0.002503 -0.000030 0.003487 0.001180 -90.988930 155.664078
[R_front_hand01_01]
22 87.624611 14.231146 22.918642 -154.633484 -59.950607 61.746033 91.683487
23 87.624611 14.231146 22.918642 -154.633499 -59.950619 61.746044 91.683487
[R_front_hand02_01]
22 89.356956 14.367283 -19.491137 154.602661 58.302849 63.744389 92.579636
23 89.356956 14.367283 -19.491137 154.602661 58.302849 63.744389 92.579636
[R_front_hand03_01]
22 87.286232 -22.307278 -0.143439 0.162155 -0.423168 -75.767921 90.091743
23 87.286232 -22.307278 -0.143439 0.162155 -0.423168 -75.767921 90.091743
[R_front_hand01_02]
22 71.020905 0.000060 0.000119 0.002323 -0.000334 106.381706 71.020905
23 71.020905 0.000060 0.000119 0.002323 -0.000334 106.381714 71.020905
[R_front_hand02_02]
22 71.020844 -0.000030 -0.000119 0.002323 -0.000334 106.381706 71.020836
23 71.020844 -0.000030 -0.000119 0.002323 -0.000334 106.381714 71.020836
[R_front_hand03_02]
22 71.020905 0.000000 0.000030 0.002323 -0.000334 106.381706 71.020905
23 71.020905 0.000000 0.000030 0.002323 -0.000334 106.381714 71.020905
[null_rope01_connect]
22 328.732483 0.000000 -0.000238 -75.567261 43.966427 -168.967575 328.732483
23 328.732483 0.000000 -0.000238 -79.916901 52.203960 -162.082611 328.732483
[Rope1_Seg01]
22 0.000026 0.000466 0.000000 -15.054111 -32.928207 138.220810 0.000467
23 0.000027 0.000488 0.000000 -21.316412 -46.529297 145.331894 0.000489
[Rope1_Seg02]
22 139.999863 -0.000179 0.000000 -0.094642 -0.420492 -2.065450 139.999863
23 139.999863 -0.000179 0.000000 -0.792569 0.593552 -6.073898 139.999863
[Rope1_Seg03]
22 139.999924 0.000060 -0.000060 -0.055195 -1.693329 -4.524571 139.999924
23 139.999924 0.000060 -0.000060 -0.674650 -1.823803 -14.444721 139.999924
[Rope1_Seg04]
22 139.999924 -0.000060 -0.000119 -0.012958 1.005625 -1.665265 139.999924
23 139.999924 -0.000060 -0.000119 -0.387122 8.578438 -0.687115 139.999924
[Rope1_Seg05]
22 139.999832 0.000119 -0.000060 0.037002 3.366183 4.234145 139.999832
23 139.999832 0.000119 -0.000060 -0.451899 8.547462 10.362445 139.999832
[Rope1_Seg06]
22 139.999954 0.000119 -0.000060 -0.006004 0.896934 0.916617 139.999954
23 139.999954 0.000119 -0.000060 -0.230250 3.065086 2.801013 139.999954
[Rope1_Seg07]
22 139.999985 0.000060 0.000000 0.004095 0.525902 0.530884 139.999985
23 139.999985 0.000060 0.000000 -0.149894 1.814268 1.676147 139.999985
[Rope1_Seg09]
22 121.602913 0.000119 -0.000089 -89.793175 -1.359789 0.847147 121.602913
23 121.602913 0.000119 -0.000089 -89.793175 -1.359789 0.847147 121.602913
[L_mid_hand01]
22 103.859421 1.038730 8.195221 127.696304 -66.076546 -35.766636 104.187431
23 103.859421 1.038730 8.195221 129.753738 -67.188766 -38.008984 104.187431
[L_mid_hand02]
22 105.572853 -4.139662 -10.864139 -167.140030 43.006096 -70.902924 106.211075
23 105.572853 -4.139662 -10.864139 -168.447937 43.306499 -72.811874 106.211075
[L_mid_hand03]
22 104.641464 17.579376 -3.913581 -6.629645 17.597929 72.871590 106.179977
23 104.641464 17.579376 -3.913581 -6.178543 17.755550 74.357056 106.179977
[null_rope02_connect]
22 328.732849 0.000179 -0.000119 93.680336 -40.766094 166.953278 328.732849
23 328.732849 0.000179 -0.000119 86.219559 -42.791466 -175.615646 328.732849
[Rope2_Seg01]
22 -0.000062 -0.000118 0.000000 30.443312 -18.335468 133.448700 0.000133
23 -0.000061 -0.000114 0.000000 21.095951 -16.043701 139.324112 0.000130
[Rope2_Seg02]
22 139.999741 -0.000060 -0.000119 6.501632 -2.068841 -4.481852 139.999756
23 139.999741 -0.000060 -0.000119 18.368885 -0.484837 -12.339470 139.999756
[Rope2_Seg03]
22 140.000107 0.000030 0.000000 5.446081 -2.107132 -3.679564 140.000107
23 140.000107 0.000030 0.000000 13.663039 -1.410058 -8.253832 140.000107
[Rope2_Seg04]
22 139.999802 0.000000 -0.000060 1.756537 -0.906263 -1.115309 139.999802
23 139.999802 0.000000 -0.000060 4.615009 -3.138090 -1.823236 139.999802
[Rope2_Seg05]
22 139.999985 -0.000060 0.000119 -2.193272 0.846969 1.518991 139.999985
23 139.999985 -0.000060 0.000119 -1.548684 -3.656783 2.822676 139.999985
[Rope2_Seg06]
22 139.999893 -0.000030 -0.000119 -1.590609 0.556020 1.096972 139.999893
23 139.999893 -0.000030 -0.000119 -0.363811 -2.877406 1.549486 139.999893
[Rope2_Seg07]
22 139.999893 0.000060 -0.000060 -0.729397 0.207636 0.504810 139.999893
23 139.999893 0.000060 -0.000060 0.070638 -2.120772 0.816565 139.999893
[Rope2_Seg09]
22 121.338966 0.000089 -0.000060 33.793236 -1.359788 -0.847141 121.338966
23 121.338966 0.000089 -0.000060 33.793236 -1.359788 -0.847141 121.338966
[R_mid_hand01]
22 104.680779 11.144459 -10.335981 -26.991863 40.639965 54.704506 105.778534
23 104.680779 11.144459 -10.335981 -23.980064 42.262295 59.248257 105.778534
[R_mid_hand02]
22 104.070427 2.443552 8.231699 62.577339 -57.416626 24.150835 104.424065
23 104.070427 2.443552 8.231699 59.529907 -60.717239 27.702402 104.424065
[R_mid_hand03]
22 106.028137 -11.221827 -5.996406 -173.762726 14.561019 -63.787205 106.788818
23 106.028137 -11.221827 -5.996406 -174.753204 14.937834 -67.669373 106.788818
[spine02]
22 129.756927 0.001550 0.000119 -1.023900 -3.926965 6.770993 129.756927
23 129.756927 0.001550 0.000119 -1.023899 -3.926965 6.770993 129.756927
[spine03]
22 78.614059 0.087445 -4.898886 1.040681 4.146420 4.212376 78.766594
23 78.614067 0.087451 -4.898887 1.040681 4.146420 4.212376 78.766602
[pelvis]
22 169.435242 0.051022 0.000000 0.019482 -0.190233 -10.721436 169.435257
23 169.435242 0.051022 0.000000 -4.666392 -0.187708 -10.717699 169.435257
[null_rope03_connect]
22 -1.257226 -2.466202 137.391083 -55.998085 31.530548 -142.716797 137.418976
23 -1.257226 -2.466202 137.391083 -66.736328 39.703236 -149.687729 137.418976
[null_rope04_connect]
22 -1.259640 -2.480268 -137.844437 -55.998085 31.530548 -142.716797 137.872513
23 -1.259640 -2.480268 -137.844437 -66.736328 39.703236 -149.687729 137.872513
[Rope3_Seg01]
22 0.000026 0.000466 0.000000 -135.547531 -14.725345 124.553558 0.000467
23 0.000027 0.000488 0.000000 -137.236755 -16.295214 129.571182 0.000489
[Rope3_Seg02]
22 139.999924 -0.000119 0.000060 -1.535596 -0.888173 -6.860910 139.999924
23 139.999924 -0.000119 0.000060 0.569409 -2.901633 -3.263536 139.999924
[Rope3_Seg03]
22 139.999924 -0.000119 0.000119 -1.862769 -0.348518 -5.693218 139.999924
23 139.999924 -0.000119 0.000119 0.238628 -2.712166 -3.942582 139.999924
[Rope3_Seg04]
22 139.999924 0.000119 0.000000 -2.038446 0.019213 -4.575366 139.999924
23 139.999924 0.000119 0.000000 0.043979 -1.981213 -3.016713 139.999924
[Rope3_Seg05]
22 139.999924 -0.000238 0.000060 0.736595 -0.614016 0.373627 139.999924
23 139.999924 -0.000238 0.000060 1.865233 0.218180 4.032598 139.999924
[Rope3_Seg06]
22 139.999893 -0.000119 -0.000060 3.591165 -1.661405 5.172269 139.999893
23 139.999893 -0.000119 -0.000060 4.299960 2.911569 15.400427 139.999893
[Rope3_Seg07]
22 139.999771 0.000060 -0.000119 3.353105 -1.607363 5.385057 139.999771
23 139.999771 0.000060 -0.000119 3.589498 5.300051 23.824554 139.999771
[Rope3_Seg08]
22 139.999985 -0.000060 0.000000 2.781424 -1.308551 5.013061 139.999985
23 139.999985 -0.000060 0.000000 0.560777 3.969413 14.614525 139.999985
[Rope3_Seg09]
22 90.185997 -0.000179 -0.000060 89.793228 -1.359877 -0.847183 90.185997
23 90.185997 -0.000179 -0.000060 89.793228 -1.359877 -0.847183 90.185997
[R_rear_hand01]
22 103.366196 -6.073594 -10.757982 -172.436646 23.546106 -61.016560 104.101845
23 103.366196 -6.073594 -10.757982 -174.043243 23.976641 -65.003036 104.101845
[R_rear_hand02]
22 100.509819 12.039542 -7.992327 -20.870361 33.419479 58.329987 101.543350
23 100.509819 12.039542 -7.992327 -18.533064 34.659111 62.503956 101.543350
[R_rear_hand03]
22 101.539970 5.215704 5.435467 78.426224 -60.383202 13.958292 101.819031
23 101.539970 5.215704 5.435467 76.952385 -63.971825 15.629140 101.819031
[Rope4_Seg01]
22 0.000004 0.000490 -0.000153 5.977794 -7.336803 153.504623 0.000513
23 0.000004 0.000511 -0.000153 -3.726515 -12.539033 156.672409 0.000533
[Rope4_Seg02]
22 139.999985 0.000060 0.000119 4.129959 -9.395721 -7.318815 139.999985
23 139.999985 0.000060 0.000119 8.384259 -7.849034 -10.807567 139.999985
[Rope4_Seg03]
22 139.999924 0.000000 -0.000238 3.367145 -11.703925 -8.642016 139.999924
23 139.999924 0.000000 -0.000238 6.602124 -14.231412 -14.514685 139.999924
[Rope4_Seg04]
22 139.999985 0.000000 0.000119 0.992381 -9.489232 -5.348210 139.999985
23 139.999985 0.000000 0.000119 2.913875 -11.539442 -10.899345 139.999985
[Rope4_Seg05]
22 139.999802 -0.000060 -0.000119 -0.652114 -0.464957 1.438620 139.999802
23 139.999802 -0.000060 -0.000119 0.388634 3.270523 0.210558 139.999802
[Rope4_Seg06]
22 139.999924 0.000000 0.000060 -0.123130 -0.819148 0.160800 139.999924
23 139.999924 0.000000 0.000060 0.345287 0.409390 -0.719245 139.999924
[Rope4_Seg07]
22 139.999802 0.000000 0.000000 0.021709 -0.710508 -0.042993 139.999802
23 139.999802 0.000000 0.000000 0.308418 -0.021260 -0.671059 139.999802
[Rope4_Seg08]
22 139.999924 0.000000 0.000119 -1.521560 -0.433957 -0.027206 139.999924
23 139.999924 0.000000 0.000119 -1.343562 -0.013139 -0.418618 139.999924
[Rope4_Seg09]
22 90.185791 0.000060 0.000060 -135.617828 2.228885 0.850567 90.185791
23 90.185791 0.000060 0.000060 -135.617828 2.228885 0.850567 90.185791
[L_rear_hand01]
22 101.696655 -8.392275 -7.654577 -14.875770 -36.204914 111.195351 102.329041
23 101.696655 -8.392275 -7.654577 -13.808590 -36.569187 109.397400 102.329041
[L_rear_hand02]
22 102.726799 -1.568258 5.773216 73.822189 69.166595 160.967651 102.900848
23 102.726799 -1.568258 5.773216 72.647583 70.590691 159.713425 102.900848
[L_rear_hand03]
22 104.552910 9.721220 -10.420293 -176.448364 -24.423326 -109.138062 105.519653
23 104.552910 9.721220 -10.420293 -177.121994 -24.509386 -107.501068 105.519653
